<?xml version="1.0" standalone="no"?>
<!DOCTYPE svg PUBLIC "-//W3C//DTD SVG 20010904//EN"
 "http://www.w3.org/TR/2001/REC-SVG-20010904/DTD/svg10.dtd">
<svg version="1.0" xmlns="http://www.w3.org/2000/svg"
 width="500.000000pt" height="375.000000pt" viewBox="0 0 500.000000 375.000000"
 preserveAspectRatio="xMidYMid meet">

<g transform="translate(0.000000,375.000000) scale(0.100000,-0.100000)"
fill="#000000" stroke="none">
<path d="M0 1875 l0 -1875 2500 0 2500 0 0 1875 0 1875 -2500 0 -2500 0 0
-1875z m2825 493 l-7 -113 111 5 c61 3 111 3 111 0 0 -3 -46 -49 -102 -102
l-103 -97 -63 -1 -62 0 -115 -112 c-64 -61 -113 -113 -111 -115 2 -2 26 10 54
26 27 17 52 31 56 31 11 0 6 -60 -8 -93 -44 -102 -184 -139 -272 -72 -137 105
-65 325 107 325 21 0 49 -4 62 -9 22 -9 31 -4 81 47 52 53 56 60 56 104 0 26
5 59 11 75 8 23 185 213 198 213 2 0 0 -51 -4 -112z m-312 -44 l37 -7 0 -59
c0 -57 -1 -59 -22 -51 -13 4 -63 8 -113 8 -78 0 -97 -4 -146 -28 -67 -32 -142
-109 -172 -175 -18 -38 -22 -66 -22 -142 0 -85 3 -101 30 -153 106 -211 377
-264 548 -107 29 26 66 72 82 102 28 50 30 60 30 166 l0 112 52 0 c52 0 52 0
59 -35 11 -62 -2 -206 -24 -268 -52 -145 -187 -292 -353 -386 -31 -17 -59 -31
-62 -31 -4 0 -7 32 -7 70 l0 70 -37 0 c-98 0 -222 57 -300 137 -154 158 -176
391 -55 579 99 152 283 229 475 198z"/>
</g>
</svg>
